# xmcd
#
# Track frame offsets:
# 151
# 14247
# 32198
# 43469
# 64159
# 97872
# 111627
# 149541
# 172046
# 194268
# 218955
# 235150
#
# Disc length: 3479 seconds
#
#
# Revision: 0
# Processed by: cddbd v1.5PL3 Copyright (c) Steve Scherf et al.
# Submitted via: FreeRIP 2.70 
#
DISCID=be0d950c
DTITLE=Bluesberries - Bluestracks
DYEAR=1999
DGENRE=Blues
TTITLE0=Doing nothing and anything in just 1 day
TTITLE1=It all works out
TTITLE2=Shiver
TTITLE3=Black paint in the dark
TTITLE4=Blueswing
TTITLE5=Blueslover
TTITLE6=Winter in Paris
TTITLE7=Too beautyfull
TTITLE8=Family affair
TTITLE9=One day blues
TTITLE10=Befor dawn
TTITLE11=Fallin´ home
EXTD=
EXTT0=
EXTT1=
EXTT2=
EXTT3=
EXTT4=
EXTT5=
EXTT6=
EXTT7=
EXTT8=
EXTT9=
EXTT10=
EXTT11=
PLAYORDER=
